HIERARCHY
ROOT Root
{
	OFFSET 0.00 0.00 0.00
	CHANNELS 6 Xposition Yposition Zposition Xrotation Yrotation Zrotation
	JOINT L_Femur
	{
		OFFSET 3.93700 0.00000 0.00000
		CHANNELS 3 Xrotation Yrotation Zrotation
		JOINT L_Tibia
		{
			OFFSET 0.00000 -19.68500 0.00000
			CHANNELS 3 Xrotation Yrotation Zrotation
			JOINT L_Foot
			{
				OFFSET 0.00000 -15.80848 0.00000
				CHANNELS 3 Xrotation Yrotation Zrotation
				JOINT L_Toe
				{
					OFFSET 0.00000 -1.78320 6.65499
					CHANNELS 3 Xrotation Yrotation Zrotation
					End Site
					{
						OFFSET 0.00000 0.00000 2.95275
					}
				}
			}
		}
	}
	JOINT R_Femur
	{
		OFFSET -3.93700 0.00000 0.00000
		CHANNELS 3 Xrotation Yrotation Zrotation
		JOINT R_Tibia
		{
			OFFSET 0.00000 -19.68500 0.00000
			CHANNELS 3 Xrotation Yrotation Zrotation
			JOINT R_Foot
			{
				OFFSET 0.00000 -15.80848 0.00000
				CHANNELS 3 Xrotation Yrotation Zrotation
				JOINT R_Toe
				{
					OFFSET 0.00000 -1.78320 6.65499
					CHANNELS 3 Xrotation Yrotation Zrotation
					End Site
					{
						OFFSET 0.00000 0.00000 2.95275
					}
				}
			}
		}
	}
	JOINT LowerBack
	{
		OFFSET 0.00000 0.03937 0.00000
		CHANNELS 3 Xrotation Yrotation Zrotation
		JOINT Thorax
		{
			OFFSET 0.00000 8.21092 0.00000
			CHANNELS 3 Xrotation Yrotation Zrotation
			JOINT Neck
			{
				OFFSET 0.00000 6.66534 0.00000
				CHANNELS 3 Xrotation Yrotation Zrotation
				JOINT Head
				{
					OFFSET 0.00000 4.52755 0.00000
					CHANNELS 3 Xrotation Yrotation Zrotation
					End Site
					{
						OFFSET 0.00000 4.52755 0.00000
					}
				}
			}
			JOINT L_Collar
			{
				OFFSET 0.00000 6.66534 0.00000
				CHANNELS 3 Xrotation Yrotation Zrotation
				JOINT L_Humerus
				{
					OFFSET 5.90550 0.00000 0.00000
					CHANNELS 3 Xrotation Yrotation Zrotation
					JOINT L_Elbow
					{
						OFFSET 11.11226 0.00000 0.00000
						CHANNELS 3 Xrotation Yrotation Zrotation
						JOINT L_Wrist
						{
							OFFSET 10.82675 -0.00000 0.00000
							CHANNELS 3 Xrotation Yrotation Zrotation
							End Site
							{
								OFFSET 5.33191 -0.00000 0.00000
							}
						}
					}
				}
			}
			JOINT R_Collar
			{
				OFFSET 0.00000 6.66534 0.00000
				CHANNELS 3 Xrotation Yrotation Zrotation
				JOINT R_Humerus
				{
					OFFSET -5.90550 0.00000 0.00000
					CHANNELS 3 Xrotation Yrotation Zrotation
					JOINT R_Elbow
					{
						OFFSET -11.11226 0.00000 0.00000
						CHANNELS 3 Xrotation Yrotation Zrotation
						JOINT R_Wrist
						{
							OFFSET -10.82675 0.00000 0.00000
							CHANNELS 3 Xrotation Yrotation Zrotation
							End Site
							{
								OFFSET -5.41338 0.00000 0.00000
							}
						}
					}
				}
			}
		}
	}
}
MOTION
Frames: 18
Frame Time: 0.008333
 5.5493 38.1687 -10.4188 7.4928 7.3372 1.1849 -15.4102 0.7401 4.4655 29.9277 -0.0000 -0.0000 -14.5607 14.8400 -9.4653 9.8920 -0.0000 -0.0000 -14.9986 -9.1780 -4.4274 29.8993 -0.0000 -0.0000 -20.0512 -26.6796 5.0581 16.0219 0.0000 -0.0000 -14.2972 0.7645 -0.7190 9.2731 0.7615 5.1315 20.8960 11.8718 2.9693 -16.0760 16.7077 -10.6831 -2.9356 -2.1064 13.4815 -10.0877 -24.8061 -79.1289 180.0000 -60.5178 180.0000 -0.0000 0.0000 -0.0000 -16.1150 5.8976 -14.6585 -30.1159 -2.2841 86.8311 180.0000 80.3813 -180.0000 -0.0000 0.0000 -0.0000
 5.5412 38.1835 -10.4172 7.6685 7.3514 1.1630 -15.5290 0.9500 4.5290 29.7600 0.0000 0.0000 -14.4460 14.6111 -9.5149 9.8839 -0.0000 -0.0000 -15.0952 -9.1552 -4.4045 29.7507 -0.0000 0.0000 -19.9326 -26.6947 5.1514 15.9314 -0.0000 -0.0000 -14.2413 0.7920 -0.6587 8.9238 0.7456 4.9836 20.8969 11.9069 2.9766 -16.1929 16.6688 -10.5466 -2.6201 -1.9079 13.3281 -9.4012 -24.5808 -78.6256 180.0000 -60.9707 180.0000 -0.0000 0.0000 -0.0000 -16.2026 5.6731 -14.7644 -31.0471 -3.8477 86.5550 180.0000 81.8781 -180.0000 -0.0000 0.0000 -0.0000
 5.5343 38.1981 -10.4166 7.8128 7.4255 1.1510 -15.6071 0.9769 4.5362 29.5761 0.0000 0.0000 -14.3258 14.5216 -9.5560 9.9137 -0.0000 -0.0000 -15.1936 -9.3362 -4.4335 29.6392 0.0000 -0.0000 -19.8270 -26.6134 5.2300 15.8594 0.0000 -0.0000 -14.1343 0.7867 -0.5881 8.5824 0.6904 4.8034 20.8071 11.8733 3.0126 -16.1903 16.6718 -10.4782 -2.3757 -1.7214 13.1430 -8.6800 -24.3427 -78.0171 180.0000 -61.4133 180.0000 -0.0000 0.0000 -0.0000 -16.5532 5.5233 -14.9562 -31.6222 -5.1554 86.2728 180.0000 83.3186 -180.0000 -0.0000 0.0000 -0.0000
 5.5247 38.2152 -10.4145 7.9981 7.4547 1.0910 -15.6997 1.0120 4.5933 29.3556 -0.0000 0.0000 -14.2228 14.4632 -9.5995 9.9594 0.0000 0.0000 -15.1892 -9.2086 -4.3203 29.2933 0.0000 -0.0000 -19.7329 -26.7790 5.2225 15.9126 0.0000 -0.0000 -14.0829 0.7973 -0.5113 8.2775 0.6699 4.7240 20.7255 11.9229 2.9432 -16.2967 16.5625 -10.3877 -2.1581 -1.5703 12.9200 -7.9252 -24.0917 -77.4076 180.0000 -61.7711 180.0000 -0.0000 0.0000 -0.0000 -16.8371 5.2942 -15.1412 -32.2368 -5.9235 85.8956 180.0000 84.7399 -180.0000 -0.0000 0.0000 -0.0000
 5.5114 38.2314 -10.4104 8.1611 7.5280 1.0608 -15.7403 0.9604 4.6051 29.0790 0.0000 0.0000 -14.1052 14.4553 -9.6456 10.0070 0.0000 -0.0000 -15.2312 -9.2487 -4.2872 29.0692 0.0000 0.0000 -19.6411 -26.7966 5.2548 15.9265 0.0000 0.0000 -14.0229 0.7872 -0.4605 8.0030 0.6262 4.6053 20.6013 11.9131 2.9456 -16.3738 16.5438 -10.3444 -1.9312 -1.3549 12.6886 -7.2542 -23.8731 -76.7252 180.0000 -62.1344 180.0000 -0.0000 0.0000 -0.0000 -17.0206 5.1065 -15.2563 -32.7783 -6.3274 85.3987 180.0000 85.7694 -180.0000 -0.0000 0.0000 -0.0000
 5.4968 38.2459 -10.4066 8.3272 7.5968 1.0657 -15.8000 1.0034 4.6060 28.8208 -0.0000 -0.0000 -13.9763 14.3587 -9.6910 10.0476 -0.0000 -0.0000 -15.2803 -9.2561 -4.2824 28.8463 -0.0000 0.0000 -19.5832 -26.8260 5.2648 15.9573 0.0000 -0.0000 -13.9452 0.7831 -0.4145 7.7231 0.5802 4.4212 20.4531 11.8640 3.0012 -16.4545 16.5911 -10.3348 -1.7973 -1.2881 12.5549 -6.4035 -23.5795 -76.0471 -180.0000 -62.4727 -180.0000 -0.0000 0.0000 -0.0000 -17.2060 4.9126 -15.3210 -33.1332 -6.2970 84.8842 -180.0000 86.4665 180.0000 -0.0000 0.0000 -0.0000
 5.4822 38.2590 -10.4027 8.4877 7.6254 1.0421 -15.8730 1.0486 4.6382 28.6183 -0.0000 0.0000 -13.8724 14.2958 -9.7411 10.0812 -0.0000 -0.0000 -15.3393 -9.2722 -4.2530 28.6607 0.0000 0.0000 -19.4919 -26.7991 5.2946 15.8790 0.0000 0.0000 -13.9055 0.7617 -0.3685 7.5315 0.5312 4.3170 20.2877 11.8380 2.9913 -16.5734 16.5660 -10.3518 -1.6585 -1.2618 12.4540 -5.5190 -23.1892 -75.4168 -180.0000 -62.6601 -180.0000 -0.0000 0.0000 -0.0000 -17.1395 4.7546 -15.3199 -33.6418 -5.8499 84.2452 180.0000 86.8664 -180.0000 -0.0000 0.0000 -0.0000
 5.4668 38.2710 -10.3974 8.6617 7.6646 1.0364 -15.9312 1.0150 4.6305 28.3737 -0.0000 -0.0000 -13.7735 14.3100 -9.7801 10.1160 0.0000 -0.0000 -15.4119 -9.3204 -4.2447 28.4685 0.0000 -0.0000 -19.4493 -26.7762 5.3042 15.9201 -0.0000 0.0000 -13.8812 0.7163 -0.3117 7.3437 0.4517 4.1822 20.1301 11.8765 2.9664 -16.7016 16.5864 -10.3461 -1.5067 -1.1108 12.2516 -4.7083 -22.8855 -74.6278 180.0000 -62.9385 180.0000 -0.0000 0.0000 -0.0000 -17.1278 4.6185 -15.2717 -33.9209 -5.1056 83.7104 180.0000 86.8689 -180.0000 -0.0000 0.0000 -0.0000
 5.4486 38.2816 -10.3920 8.8179 7.6421 0.9430 -15.9460 0.9906 4.7243 28.0622 -0.0000 -0.0000 -13.7531 14.3638 -9.7677 10.3664 0.0000 0.0000 -15.3809 -9.2213 -4.0885 28.1399 -0.0000 0.0000 -19.3861 -26.8686 5.3020 16.0328 -0.0000 -0.0000 -13.8461 0.6792 -0.1756 7.1992 0.3758 4.0750 19.9359 11.8942 2.9325 -16.8227 16.5811 -10.3547 -1.3812 -1.0607 12.0860 -3.8803 -22.4023 -73.9131 180.0000 -63.1736 180.0000 -0.0000 0.0000 -0.0000 -17.2161 4.4943 -15.2499 -33.9819 -4.1242 83.2845 180.0000 86.6504 -180.0000 -0.0000 0.0000 -0.0000
 5.4296 38.2921 -10.3858 8.9581 7.6284 0.9743 -16.0178 1.0372 4.7115 27.9549 0.0000 -0.0000 -13.6227 14.3419 -9.8347 10.2179 -0.0000 -0.0000 -15.4324 -9.2371 -4.0995 27.9573 0.0000 0.0000 -19.3541 -26.8197 5.3198 16.0086 0.0000 0.0000 -13.7988 0.6264 -0.1371 7.0574 0.2922 3.9323 19.7809 11.9108 2.9469 -16.9616 16.6813 -10.4219 -1.2879 -0.9173 11.9500 -3.1058 -21.9620 -73.2183 180.0000 -63.4761 180.0000 -0.0000 0.0000 -0.0000 -17.1470 4.3434 -15.1443 -34.0556 -2.9085 82.9022 180.0000 86.1104 -180.0000 -0.0000 0.0000 -0.0000
 5.4079 38.2998 -10.3783 9.0972 7.6205 1.0007 -16.0156 0.9879 4.6851 27.6920 0.0000 -0.0000 -13.5397 14.4235 -9.8713 10.2697 0.0000 -0.0000 -15.4941 -9.3072 -4.1157 27.7987 0.0000 -0.0000 -19.3432 -26.7173 5.3201 16.0097 0.0000 0.0000 -13.7585 0.5688 -0.1315 6.9637 0.2190 3.8570 19.5978 11.9302 2.9264 -17.1779 16.6984 -10.4621 -0.9604 -0.8742 11.7475 -2.5304 -21.3942 -72.4649 180.0000 -63.6709 180.0000 -0.0000 0.0000 -0.0000 -17.2012 4.1919 -15.1027 -33.9219 -1.5637 82.6394 180.0000 85.3652 -180.0000 -0.0000 0.0000 -0.0000
 5.3841 38.3039 -10.3684 9.2180 7.5979 1.0113 -16.0130 0.8945 4.6717 27.4835 -0.0000 0.0000 -13.4945 14.5650 -9.8970 10.3236 -0.0000 0.0000 -15.5339 -9.3661 -4.1087 27.6536 -0.0000 0.0000 -19.3510 -26.6059 5.3383 16.0482 -0.0000 0.0000 -13.7232 0.5099 -0.1085 6.8780 0.1410 3.7708 19.4854 11.9353 2.9133 -17.4147 16.6973 -10.5212 -0.9138 -0.8661 11.7022 -1.7715 -20.8417 -71.9197 180.0000 -63.9370 180.0000 -0.0000 0.0000 -0.0000 -17.1324 4.0648 -15.0203 -33.7677 -0.1206 82.4172 180.0000 84.3881 -180.0000 -0.0000 0.0000 -0.0000
 5.3594 38.3069 -10.3598 9.3561 7.5340 0.9054 -16.1068 1.0702 4.8432 27.3636 0.0000 -0.0000 -13.5184 14.4399 -9.8754 10.5002 0.0000 0.0000 -15.5081 -9.2922 -3.9373 27.3801 -0.0000 0.0000 -19.3174 -26.6264 5.3317 16.0735 -0.0000 -0.0000 -13.7236 0.4534 0.0022 6.8344 0.0659 3.7654 19.3271 11.9721 2.8716 -17.6220 16.7024 -10.5686 -0.7829 -0.7088 11.5917 -1.2690 -20.4254 -71.3730 180.0000 -64.2356 180.0000 -0.0000 0.0000 -0.0000 -17.0419 3.9612 -14.9191 -33.5853 1.4295 82.1908 180.0000 83.1491 -180.0000 -0.0000 0.0000 -0.0000
 5.3319 38.3086 -10.3532 9.4740 7.4631 0.9735 -16.1795 1.1576 4.8213 27.3250 0.0000 -0.0000 -13.4246 14.4436 -9.9548 10.3222 0.0000 0.0000 -15.5668 -9.2324 -3.9551 27.2554 -0.0000 -0.0000 -19.3849 -26.5851 5.3395 16.1548 -0.0000 0.0000 -13.7029 0.3901 -0.0992 6.7963 0.0234 3.8416 19.2343 12.0115 2.7875 -17.8472 16.6214 -10.6223 -0.9294 -0.6744 11.5706 -0.4908 -19.9716 -70.9689 180.0000 -64.5495 180.0000 -0.0000 0.0000 -0.0000 -16.9227 3.9160 -14.8052 -33.3461 3.0449 81.9594 180.0000 81.6140 -180.0000 -0.0000 0.0000 -0.0000
 5.3027 38.3100 -10.3441 9.5471 7.3278 0.9998 -16.1867 1.2741 4.8669 27.2451 0.0000 -0.0000 -13.3855 14.4530 -10.0008 10.3110 0.0000 -0.0000 -15.5909 -9.2034 -3.9233 27.1486 -0.0000 0.0000 -19.4145 -26.4690 5.3142 16.2182 -0.0000 0.0000 -13.6477 0.3598 -0.1262 6.7562 -0.0008 3.8739 19.1340 12.0792 2.7167 -18.0769 16.5572 -10.5973 -0.9436 -0.5669 11.5231 0.0878 -19.6089 -70.5124 -180.0000 -64.8413 180.0000 -0.0000 0.0000 -0.0000 -16.7822 3.9316 -14.6522 -33.0039 4.7299 81.7441 180.0000 79.9531 -180.0000 -0.0000 0.0000 -0.0000
 5.2754 38.3105 -10.3337 9.6512 7.2214 1.0237 -16.1567 1.2258 4.8629 27.0454 -0.0000 -0.0000 -13.3716 14.6405 -10.0352 10.4142 0.0000 0.0000 -15.6613 -9.2470 -3.9168 27.0752 -0.0000 0.0000 -19.4398 -26.3010 5.3048 16.2058 0.0000 0.0000 -13.6492 0.3303 -0.1615 6.7621 -0.0160 3.9515 19.0149 12.1112 2.6402 -18.2494 16.4914 -10.6383 -0.8686 -0.5694 11.4338 0.5709 -19.1712 -70.0542 180.0000 -65.0775 180.0000 -0.0000 0.0000 -0.0000 -16.6226 3.9126 -14.5088 -32.7031 6.5198 81.5511 180.0000 78.2590 -180.0000 -0.0000 0.0000 -0.0000
 5.2473 38.3091 -10.3235 9.7452 7.1393 1.0164 -16.2286 1.3246 4.9298 27.0353 -0.0000 0.0000 -13.3556 14.6222 -10.0532 10.3849 -0.0000 -0.0000 -15.7033 -9.2746 -3.8730 26.9866 -0.0000 0.0000 -19.4602 -26.1796 5.3088 16.1809 0.0000 0.0000 -13.6639 0.3014 -0.2038 6.8061 -0.0244 4.0616 18.8479 12.0617 2.6322 -18.3804 16.4365 -10.6573 -0.7960 -0.6865 11.3944 1.0770 -18.7589 -69.6401 -180.0000 -65.2666 -180.0000 -0.0000 0.0000 -0.0000 -16.3005 3.9315 -14.3033 -32.4451 8.2495 81.2825 180.0000 76.1680 -180.0000 -0.0000 0.0000 -0.0000
 5.2196 38.3089 -10.3141 9.8134 7.0288 1.0250 -16.2222 1.3217 4.9578 26.9446 -0.0000 -0.0000 -13.3383 14.7482 -10.0526 10.3985 0.0000 -0.0000 -15.7353 -9.2892 -3.8393 26.9157 0.0000 -0.0000 -19.4731 -26.0372 5.3036 16.1582 -0.0000 -0.0000 -13.5951 0.2979 -0.1320 6.7869 -0.0394 4.0497 18.7285 12.1044 2.5127 -18.6126 16.2788 -10.6636 -0.8165 -0.6437 11.2906 1.6253 -18.6389 -69.1026 180.0000 -65.4687 180.0000 -0.0000 0.0000 -0.0000 -16.6148 3.9266 -14.3314 -31.6030 10.1559 81.4083 180.0000 74.2764 -180.0000 -0.0000 0.0000 -0.0000
